<?xml version="1.0" standalone="no"?>
<!DOCTYPE svg PUBLIC "-//W3C//DTD SVG 20010904//EN"
 "http://www.w3.org/TR/2001/REC-SVG-20010904/DTD/svg10.dtd">
<svg version="1.0" xmlns="http://www.w3.org/2000/svg"
 width="700.000000pt" height="700.000000pt" viewBox="0 0 700.000000 700.000000"
 preserveAspectRatio="xMidYMid meet">
<metadata>
Created by potrace 1.11, written by Peter Selinger 2001-2013
</metadata>
<g transform="translate(0.000000,700.000000) scale(0.100000,-0.100000)"
fill="#000000" stroke="none">
<path d="M3360 6976 c-94 -31 -143 -60 -203 -119 -145 -145 -189 -352 -115
-540 9 -23 8 -31 -9 -50 -54 -59 -66 -111 -65 -297 0 -112 4 -155 17 -190 22
-57 22 -84 0 -140 -16 -40 -18 -89 -18 -462 0 -230 -2 -418 -5 -418 -2 0 -133
130 -290 289 -291 292 -327 324 -376 337 -21 5 -33 20 -55 68 -21 45 -53 86
-122 156 -136 136 -177 169 -235 186 -46 13 -54 20 -75 62 -29 57 -139 171
-194 198 -287 147 -619 11 -713 -291 -19 -61 -21 -214 -3 -270 38 -124 125
-235 230 -295 33 -19 61 -38 61 -42 0 -4 9 -32 21 -63 17 -46 42 -77 148 -183
117 -118 150 -143 224 -171 15 -6 27 -18 27 -26 0 -47 61 -119 339 -398 163
-164 297 -301 298 -305 2 -4 -185 -7 -415 -6 -408 0 -454 -3 -519 -33 -28 -13
-35 -13 -64 2 -49 26 -79 29 -269 29 -168 0 -177 -1 -233 -27 -56 -25 -58 -26
-100 -10 -60 23 -212 26 -279 7 -228 -67 -373 -267 -364 -498 6 -127 52 -232
144 -325 121 -122 288 -168 474 -131 61 12 68 12 99 -7 64 -39 106 -46 280
-45 169 0 188 2 246 29 29 14 37 13 90 -7 56 -21 71 -22 481 -23 232 0 422 -3
422 -5 0 -3 -132 -136 -294 -296 -268 -265 -336 -342 -336 -383 0 -7 -28 -26
-62 -41 -50 -23 -88 -54 -183 -149 -114 -114 -155 -171 -169 -234 -4 -17 -17
-31 -37 -40 -34 -14 -123 -80 -152 -114 -33 -38 -84 -131 -102 -186 -10 -30
-19 -88 -21 -129 -8 -288 224 -517 511 -504 97 4 158 22 233 69 89 55 151 120
188 198 15 31 26 39 69 51 59 18 104 53 236 188 90 91 112 121 138 191 6 16
18 27 29 27 39 0 118 69 387 339 154 155 283 281 286 281 3 0 6 -188 6 -417 1
-406 1 -420 23 -476 20 -53 21 -61 7 -90 -8 -18 -18 -43 -22 -56 -10 -32 -10
-350 0 -381 13 -42 44 -108 54 -114 5 -4 3 -26 -6 -53 -23 -76 -24 -195 -2
-274 58 -211 235 -353 454 -365 279 -15 516 210 516 489 0 70 -5 96 -25 155
-14 40 -14 44 12 99 26 56 26 63 26 248 0 173 -2 194 -22 238 l-21 48 21 52
c21 50 22 68 24 482 1 237 3 432 3 434 1 3 139 -133 309 -301 272 -270 313
-308 358 -324 48 -17 54 -22 75 -73 17 -42 48 -80 135 -167 116 -117 148 -139
223 -159 40 -10 48 -17 72 -63 67 -130 170 -219 304 -260 69 -22 217 -21 288
2 66 21 156 77 210 132 114 116 163 318 114 479 -36 122 -145 250 -256 304
-48 23 -56 31 -63 64 -14 69 -48 117 -163 231 -88 88 -126 118 -168 135 -48
20 -56 27 -67 64 -11 35 -65 94 -317 345 -167 166 -303 304 -303 306 0 1 188
3 418 3 372 1 422 3 462 18 56 22 83 22 140 1 34 -13 79 -18 185 -19 77 0 158
3 180 7 44 9 105 37 128 60 14 14 21 13 74 -5 170 -59 374 -10 503 120 96 97
139 193 145 327 7 143 -42 269 -143 370 -141 142 -354 185 -535 109 -36 -15
-40 -15 -66 4 -51 37 -125 48 -291 46 -134 -1 -162 -5 -203 -23 l-47 -21 -48
21 c-45 21 -63 21 -472 24 -234 1 -429 3 -434 3 -6 1 128 139 296 309 270 272
308 313 324 358 17 48 22 54 72 75 42 17 81 48 167 134 116 115 140 149 160
225 10 40 17 48 61 70 142 71 229 179 265 329 78 320 -167 619 -496 606 -179
-8 -344 -114 -421 -271 -30 -62 -29 -61 -73 -69 -63 -11 -113 -47 -226 -160
-87 -89 -118 -127 -136 -170 -12 -30 -26 -55 -31 -55 -4 0 -30 -10 -56 -22
-35 -16 -121 -96 -338 -312 -160 -160 -297 -296 -305 -303 -12 -10 -14 47 -13
405 0 412 -4 472 -34 529 -9 17 -8 30 5 60 24 56 24 55 27 219 3 163 -9 237
-45 287 l-20 28 22 57 c30 80 37 210 14 288 -64 222 -237 361 -460 369 -71 2
-103 -2 -155 -19z m140 -1488 c0 -672 -3 -1218 -7 -1215 -7 7 -11 2359 -4
2410 2 15 5 27 7 27 2 0 4 -550 4 -1222z m890 -1421 c0 -2 -12 -14 -27 -28
l-28 -24 24 28 c23 25 31 32 31 24z m-70 -71 c0 -2 -8 -10 -17 -17 -16 -13
-17 -12 -4 4 13 16 21 21 21 13z m-1589 -43 c13 -16 12 -17 -3 -4 -17 13 -22
21 -14 21 2 0 10 -8 17 -17z m1519 -26 c0 -2 -10 -12 -22 -23 l-23 -19 19 23
c18 21 26 27 26 19z m-1439 -54 c13 -16 12 -17 -3 -4 -17 13 -22 21 -14 21 2
0 10 -8 17 -17z m-2301 -177 c0 -2 -11 -6 -25 -8 -13 -3 -22 -1 -19 3 5 9 44
13 44 5z m-94 -26 c-22 -11 -51 -30 -65 -43 l-26 -22 24 27 c22 26 76 58 96
57 6 0 -8 -9 -29 -19z m154 10 c11 -8 7 -9 -15 -4 -37 8 -45 14 -19 14 10 0
26 -5 34 -10z m6076 -42 l29 -33 -32 29 c-18 17 -33 31 -33 33 0 8 8 1 36 -29z
m-6323 -53 c-3 -9 -8 -14 -10 -11 -3 3 -2 9 2 15 9 16 15 13 8 -4z m6365 -10
c-3 -3 -9 2 -12 12 -6 14 -5 15 5 6 7 -7 10 -15 7 -18z m-5315 -162 c22 -14
36 -27 32 -31 -3 -4 -9 -2 -13 4 -4 6 -22 19 -41 29 -47 24 -121 15 -170 -22
-31 -23 -33 -23 -16 -4 24 28 50 42 90 51 41 8 73 1 118 -27z m4412 9 c11 -5
31 -23 45 -39 l25 -28 -30 26 c-79 67 -171 64 -240 -7 l-27 -29 17 28 c41 64
140 87 210 49z m494 -5 c-20 -17 -69 -58 -109 -89 -67 -53 -77 -58 -127 -59
-124 -3 -173 0 -173 9 0 4 50 6 111 5 l111 -2 99 75 c54 41 101 79 104 85 4 5
9 9 13 9 4 0 -9 -15 -29 -33z m-5488 -61 l78 -75 121 0 c67 1 124 -2 128 -5 6
-7 -56 -9 -173 -6 l-80 2 -81 79 c-45 43 -79 79 -76 79 2 0 40 -33 83 -74z
m1945 -80 c7 -3 18 -15 24 -28 l11 -23 -18 22 -18 22 -590 0 c-735 0 -705 0
-705 9 0 8 1275 6 1296 -2z m2814 2 c0 -5 -8 -8 -17 -9 -53 -1 -1270 0 -1278
2 -5 1 8 5 30 8 58 9 1265 7 1265 -1z m-2280 -550 c0 -10 -207 -10 -213 0 -3
4 44 7 104 7 60 0 109 -3 109 -7z m693 -8 c10 -10 9 -11 -1 -5 -8 4 -66 7
-130 6 -65 -1 -112 2 -105 6 20 14 222 8 236 -7z m-463 -1212 c0 -672 -3
-1218 -7 -1214 -9 9 -10 2436 0 2436 4 0 7 -550 7 -1222z"/>
</g>
</svg>
